<svg id="Capa_1" enable-background="new 0 0 512 512" height="512" viewBox="0 0 512 512" width="512" xmlns="http://www.w3.org/2000/svg"><g><g><path d="m512 20.604v470.793c0 11.383-9.22 20.603-20.604 20.603h-470.792c-11.384 0-20.604-9.22-20.604-20.604v-470.792c0-11.384 9.22-20.604 20.604-20.604h470.793c11.383 0 20.603 9.22 20.603 20.604z" fill="#ffb800"/><path d="m512 20.604v470.793c0 11.383-9.22 20.603-20.604 20.603h-139.229c142.639-94.231 118.677-401.266 104.873-512h34.357c11.383 0 20.603 9.22 20.603 20.604z" fill="#ff9700"/></g><g><g><path d="m183.148 120.953v58.652c0 5.69-4.612 10.302-10.302 10.302h-64.677c-5.69 0-10.302-4.612-10.302-10.302v-58.652c0-5.69 4.612-10.302 10.302-10.302h64.677c5.689 0 10.302 4.612 10.302 10.302z" fill="#e8e6ed"/><path d="m183.148 120.953v58.652c0 5.69-4.612 10.302-10.302 10.302h-46.261c22.067-24.336 23.777-60.48 22.929-79.256h23.332c5.689 0 10.302 4.612 10.302 10.302z" fill="#d1d0d8"/></g><g><path d="m298.64 120.953v58.652c0 5.69-4.612 10.302-10.302 10.302h-64.677c-5.69 0-10.302-4.612-10.302-10.302v-58.652c0-5.69 4.612-10.302 10.302-10.302h64.677c5.69 0 10.302 4.612 10.302 10.302z" fill="#d1d0d8"/><path d="m298.64 120.953v58.652c0 5.69-4.612 10.302-10.302 10.302h-46.261c22.067-24.336 23.777-60.48 22.929-79.256h23.332c5.69 0 10.302 4.612 10.302 10.302z" fill="#bdbcc4"/></g><g><path d="m414.133 120.953v58.652c0 5.69-4.612 10.302-10.302 10.302h-64.677c-5.69 0-10.302-4.612-10.302-10.302v-58.652c0-5.69 4.612-10.302 10.302-10.302h64.677c5.69 0 10.302 4.612 10.302 10.302z" fill="#e8e6ed"/><path d="m414.133 120.953v58.652c0 5.69-4.612 10.302-10.302 10.302h-46.261c22.067-24.336 23.777-60.48 22.929-79.256h23.332c5.69 0 10.302 4.612 10.302 10.302z" fill="#d1d0d8"/></g><g><path d="m183.148 226.674v58.652c0 5.69-4.612 10.302-10.302 10.302h-64.677c-5.69 0-10.302-4.612-10.302-10.302v-58.652c0-5.69 4.612-10.302 10.302-10.302h64.677c5.689 0 10.302 4.612 10.302 10.302z" fill="#d1d0d8"/><path d="m183.148 226.674v58.652c0 5.69-4.612 10.302-10.302 10.302h-46.261c22.067-24.336 23.777-60.48 22.929-79.256h23.332c5.689 0 10.302 4.612 10.302 10.302z" fill="#bdbcc4"/></g><g><path d="m298.64 226.674v58.652c0 5.69-4.612 10.302-10.302 10.302h-64.677c-5.69 0-10.302-4.612-10.302-10.302v-58.652c0-5.69 4.612-10.302 10.302-10.302h64.677c5.69 0 10.302 4.612 10.302 10.302z" fill="#e8e6ed"/><path d="m298.64 226.674v58.652c0 5.69-4.612 10.302-10.302 10.302h-46.261c22.067-24.336 23.777-60.48 22.929-79.256h23.332c5.69 0 10.302 4.612 10.302 10.302z" fill="#d1d0d8"/></g><g><path d="m414.133 226.674v58.652c0 5.69-4.612 10.302-10.302 10.302h-64.677c-5.69 0-10.302-4.612-10.302-10.302v-58.652c0-5.69 4.612-10.302 10.302-10.302h64.677c5.69 0 10.302 4.612 10.302 10.302z" fill="#d1d0d8"/><path d="m414.133 226.674v58.652c0 5.69-4.612 10.302-10.302 10.302h-46.261c22.067-24.336 23.777-60.48 22.929-79.256h23.332c5.69 0 10.302 4.612 10.302 10.302z" fill="#bdbcc4"/></g><g><path d="m183.148 332.395v58.652c0 5.69-4.612 10.302-10.302 10.302h-64.677c-5.69 0-10.302-4.612-10.302-10.302v-58.652c0-5.69 4.612-10.302 10.302-10.302h64.677c5.689 0 10.302 4.612 10.302 10.302z" fill="#e8e6ed"/><path d="m183.148 332.395v58.652c0 5.69-4.612 10.302-10.302 10.302h-46.261c22.067-24.336 23.777-60.48 22.929-79.256h23.332c5.689 0 10.302 4.612 10.302 10.302z" fill="#d1d0d8"/></g><g><path d="m298.64 332.395v58.652c0 5.69-4.612 10.302-10.302 10.302h-64.677c-5.69 0-10.302-4.612-10.302-10.302v-58.652c0-5.69 4.612-10.302 10.302-10.302h64.677c5.69 0 10.302 4.612 10.302 10.302z" fill="#d1d0d8"/><path d="m298.64 332.395v58.652c0 5.69-4.612 10.302-10.302 10.302h-46.261c22.067-24.336 23.777-60.48 22.929-79.256h23.332c5.69 0 10.302 4.612 10.302 10.302z" fill="#bdbcc4"/></g><g><path d="m414.133 332.395v58.652c0 5.69-4.612 10.302-10.302 10.302h-64.677c-5.69 0-10.302-4.612-10.302-10.302v-58.652c0-5.69 4.612-10.302 10.302-10.302h64.677c5.69 0 10.302 4.612 10.302 10.302z" fill="#e8e6ed"/><path d="m414.133 332.395v58.652c0 5.69-4.612 10.302-10.302 10.302h-46.261c22.067-24.336 23.777-60.48 22.929-79.256h23.332c5.69 0 10.302 4.612 10.302 10.302z" fill="#d1d0d8"/></g></g></g></svg>