<svg height="480pt" viewBox="0 0 480 480" width="480pt" xmlns="http://www.w3.org/2000/svg"><path d="m400 424v16c0 17.671875-14.328125 32-32 32h-256c-17.671875 0-32-14.328125-32-32v-16zm0 0" fill="#9bc9ff"/><path d="m368 8h-256c-17.671875 0-32 14.328125-32 32v16h320v-16c0-17.671875-14.328125-32-32-32zm0 0" fill="#9bc9ff"/><path d="m320 287.449219c33.277344-4.152344 57.695312-33.308594 55.941406-66.796875-1.753906-33.492188-29.085937-59.9375-62.613281-60.589844-13.988281-31.992188-47.109375-51.21875-81.828125-47.496094s-63.011719 29.53125-69.898438 63.761719c-27.566406 2.71875-50.257812 22.859375-56.222656 49.910156s6.148438 54.867188 30.015625 68.925781c23.867188 14.058594 54.070313 11.167969 74.835938-7.164062h109.769531zm0 0" fill="#9bc9ff"/><path d="m192 360h96v32h-96zm0 0" fill="#9bc9ff"/><path d="m376 392h96v-32h-96zm0 0" fill="#9bc9ff"/><path d="m104 360h-96v32h96zm0 0" fill="#9bc9ff"/><g fill="#57a4ff"><path d="m88 64h304v32h16v-56c-.027344-22.082031-17.917969-39.9726562-40-40h-256c-22.082031.0273438-39.972656 17.917969-40 40v56h16zm24-48h256c13.253906 0 24 10.746094 24 24v8h-304v-8c0-13.253906 10.746094-24 24-24zm0 0"/><path d="m360 80h16v16h-16zm0 0"/><path d="m328 80h16v16h-16zm0 0"/><path d="m296 80h16v16h-16zm0 0"/><path d="m104 80h16v16h-16zm0 0"/><path d="m256 440h-32c-4.417969 0-8 3.582031-8 8s3.582031 8 8 8h32c4.417969 0 8-3.582031 8-8s-3.582031-8-8-8zm0 0"/><path d="m192 400h96c4.417969 0 8-3.582031 8-8v-32c0-4.417969-3.582031-8-8-8h-96c-4.417969 0-8 3.582031-8 8v32c0 4.417969 3.582031 8 8 8zm8-32h80v16h-80zm0 0"/><path d="m472 352h-96c-4.417969 0-8 3.582031-8 8v32c0 4.417969 3.582031 8 8 8h16v16h-304v-16h16c4.417969 0 8-3.582031 8-8v-32c0-4.417969-3.582031-8-8-8h-96c-4.417969 0-8 3.582031-8 8v32c0 4.417969 3.582031 8 8 8h64v40c.027344 22.082031 17.917969 39.972656 40 40h256c22.082031-.027344 39.972656-17.917969 40-40v-40h64c4.417969 0 8-3.582031 8-8v-32c0-4.417969-3.582031-8-8-8zm-456 16h80v16h-80zm352 96h-256c-13.253906 0-24-10.746094-24-24v-8h304v8c0 13.253906-10.746094 24-24 24zm96-80h-80v-16h80zm0 0"/><path d="m232 304h16v40h-16zm0 0"/><path d="m432 344v-16c0-4.417969-3.582031-8-8-8h-144v-16h-16v24c0 4.417969 3.582031 8 8 8h144v8zm0 0"/><path d="m56 320c-4.417969 0-8 3.582031-8 8v16h16v-8h144c4.417969 0 8-3.582031 8-8v-24h-15.199219c4.394531-2.234375 8.550781-4.917969 12.398438-8h106.800781c1.285156-.003906 2.546875-.351562 3.65625-1 35.75-5.851562 61.574219-37.375 60.273438-73.578125-1.300782-36.203125-29.316407-65.792969-65.394532-69.070313-16.441406-32.550781-51.261718-51.585937-87.539062-47.859374-36.277344 3.726562-66.5 29.445312-75.980469 64.660156-27.757813 4.980468-50.054687 25.707031-57.042969 53.03125-6.984375 27.324218 2.625 56.210937 24.585938 73.902344 21.960937 17.695312 52.230468 20.9375 77.441406 8.296874v15.617188zm56-80c-.101562-28.78125 21.707031-52.914062 50.351562-55.710938 3.503907-.347656 6.371094-2.949218 7.054688-6.402343 6.183594-30.832031 31.664062-54.085938 62.929688-57.433594 31.269531-3.347656 61.09375 13.984375 73.664062 42.8125 1.253906 2.871094 4.066406 4.746094 7.199219 4.796875 29.335937.566406 53.246093 23.699219 54.78125 53 1.535156 29.296875-19.828125 54.804688-48.941407 58.433594-.632812.082031-1.25.25-1.839843.496094h-106.96875c-1.945313 0-3.824219.710937-5.285157 2-16.496093 14.5625-39.992187 18.101562-60.042968 9.042968-20.050782-9.058594-32.929688-29.03125-32.902344-51.035156zm0 0"/><path d="m0 144h16v16h-16zm0 0"/><path d="m24 144h64v16h-64zm0 0"/><path d="m0 176h16v16h-16zm0 0"/><path d="m24 176h64v16h-64zm0 0"/><path d="m392 144h16v16h-16zm0 0"/><path d="m416 144h64v16h-64zm0 0"/><path d="m392 176h16v16h-16zm0 0"/><path d="m416 176h64v16h-64zm0 0"/></g></svg>