<?xml version="1.0" encoding="iso-8859-1"?>
<!-- Generator: Adobe Illustrator 19.0.0, SVG Export Plug-In . SVG Version: 6.00 Build 0)  -->
<svg version="1.1" id="Capa_1" xmlns="http://www.w3.org/2000/svg" xmlns:xlink="http://www.w3.org/1999/xlink" x="0px" y="0px"
	 viewBox="0 0 512 512" style="enable-background:new 0 0 512 512;" xml:space="preserve">
<path style="fill:#303C42;" d="M256,0C114.833,0,0,114.844,0,256s114.833,256,256,256s256-114.844,256-256S397.167,0,256,0z"/>
<path style="fill:#DFE1DF;" d="M256,490.667C126.604,490.667,21.333,385.396,21.333,256S126.604,21.333,256,21.333
	S490.667,126.604,490.667,256S385.396,490.667,256,490.667z"/>
<path style="opacity:0.1;enable-background:new    ;" d="M448.03,121.539c13.549,29.642,21.303,62.464,21.303,97.128
	c0,129.396-105.271,234.667-234.667,234.667c-79.374,0-149.542-39.712-192.03-100.206C79.667,434.132,161.268,490.667,256,490.667
	c129.396,0,234.667-105.271,234.667-234.667C490.667,205.978,474.806,159.663,448.03,121.539z"/>
<path style="fill:#303C42;" d="M202.667,106.667h-64c-17.646,0-32,14.354-32,32v64c0,17.646,14.354,32,32,32h64
	c17.646,0,32-14.354,32-32v-64C234.667,121.021,220.313,106.667,202.667,106.667z"/>
<path style="fill:#00B5EF;" d="M213.333,202.667c0,5.885-4.792,10.667-10.667,10.667h-64c-5.875,0-10.667-4.781-10.667-10.667v-64
	c0-5.885,4.792-10.667,10.667-10.667h64c5.875,0,10.667,4.781,10.667,10.667V202.667z"/>
<path style="fill:#303C42;" d="M373.333,106.667h-64c-17.646,0-32,14.354-32,32v64c0,17.646,14.354,32,32,32h64
	c17.646,0,32-14.354,32-32v-64C405.333,121.021,390.979,106.667,373.333,106.667z"/>
<path style="fill:#69B342;" d="M384,202.667c0,5.885-4.792,10.667-10.667,10.667h-64c-5.875,0-10.667-4.781-10.667-10.667v-64
	c0-5.885,4.792-10.667,10.667-10.667h64c5.875,0,10.667,4.781,10.667,10.667V202.667z"/>
<path style="fill:#303C42;" d="M202.667,277.333h-64c-17.646,0-32,14.354-32,32v64c0,17.646,14.354,32,32,32h64
	c17.646,0,32-14.354,32-32v-64C234.667,291.688,220.313,277.333,202.667,277.333z"/>
<path style="fill:#F9C20A;" d="M213.333,373.333c0,5.885-4.792,10.667-10.667,10.667h-64c-5.875,0-10.667-4.781-10.667-10.667v-64
	c0-5.885,4.792-10.667,10.667-10.667h64c5.875,0,10.667,4.781,10.667,10.667V373.333z"/>
<path style="fill:#303C42;" d="M373.333,277.333h-64c-17.646,0-32,14.354-32,32v64c0,17.646,14.354,32,32,32h64
	c17.646,0,32-14.354,32-32v-64C405.333,291.688,390.979,277.333,373.333,277.333z"/>
<path style="fill:#F04937;" d="M384,373.333c0,5.885-4.792,10.667-10.667,10.667h-64c-5.875,0-10.667-4.781-10.667-10.667v-64
	c0-5.885,4.792-10.667,10.667-10.667h64c5.875,0,10.667,4.781,10.667,10.667V373.333z"/>
<g>
	<path style="opacity:0.2;fill:#FFFFFF;enable-background:new    ;" d="M149.333,170.667c0-11.783,9.551-21.333,21.333-21.333
		h42.667v-10.667c0-5.885-4.792-10.667-10.667-10.667h-64c-5.875,0-10.667,4.781-10.667,10.667v64
		c0,5.885,4.792,10.667,10.667,10.667h10.667V170.667z"/>
	<path style="opacity:0.2;fill:#FFFFFF;enable-background:new    ;" d="M320,170.667c0-11.783,9.551-21.333,21.333-21.333H384
		v-10.667c0-5.885-4.792-10.667-10.667-10.667h-64c-5.875,0-10.667,4.781-10.667,10.667v64c0,5.885,4.792,10.667,10.667,10.667H320
		V170.667z"/>
	<path style="opacity:0.2;fill:#FFFFFF;enable-background:new    ;" d="M149.333,341.333c0-11.783,9.551-21.333,21.333-21.333
		h42.667v-10.667c0-5.885-4.792-10.667-10.667-10.667h-64c-5.875,0-10.667,4.781-10.667,10.667v64
		c0,5.885,4.792,10.667,10.667,10.667h10.667V341.333z"/>
	<path style="opacity:0.2;fill:#FFFFFF;enable-background:new    ;" d="M320,341.333c0-11.783,9.551-21.333,21.333-21.333H384
		v-10.667c0-5.885-4.792-10.667-10.667-10.667h-64c-5.875,0-10.667,4.781-10.667,10.667v64c0,5.885,4.792,10.667,10.667,10.667H320
		V341.333z"/>
</g>
<linearGradient id="SVGID_1_" gradientUnits="userSpaceOnUse" x1="-45.5785" y1="639.5551" x2="-23.8277" y2="629.4137" gradientTransform="matrix(21.3333 0 0 -21.3333 996.3334 13791.667)">
	<stop  offset="0" style="stop-color:#FFFFFF;stop-opacity:0.2"/>
	<stop  offset="1" style="stop-color:#FFFFFF;stop-opacity:0"/>
</linearGradient>
<path style="fill:url(#SVGID_1_);" d="M256,0C114.833,0,0,114.844,0,256s114.833,256,256,256s256-114.844,256-256S397.167,0,256,0z"
	/>
<g>
</g>
<g>
</g>
<g>
</g>
<g>
</g>
<g>
</g>
<g>
</g>
<g>
</g>
<g>
</g>
<g>
</g>
<g>
</g>
<g>
</g>
<g>
</g>
<g>
</g>
<g>
</g>
<g>
</g>
</svg>
