<svg id="Capa_1" enable-background="new 0 0 512 512" height="512" viewBox="0 0 512 512" width="512" xmlns="http://www.w3.org/2000/svg"><g><path d="m500.068 496.596-3.472 3.472c-15.906 15.906-41.691 15.906-57.587 0l-131.428-131.43 61.058-61.058 33.81 33.81 97.619 97.619c15.906 15.906 15.906 41.681 0 57.587z" fill="#f8e95c"/><path d="m402.449 341.391c-15.865 24.353-36.705 45.193-61.058 61.058l-33.81-33.81 61.058-61.058z" fill="#f4d757"/><path d="m508.071 485.267c-1.947 4.1-4.615 7.943-8.004 11.332l-3.472 3.472c-15.906 15.906-41.681 15.906-57.586 0l-131.429-131.429 22.808-22.808 131.429 131.429c12.506 12.516 31.131 15.185 46.254 8.004z" fill="#f4d757"/><circle cx="208.094" cy="208.094" fill="#5171f4" r="208.091"/><path d="m222.488 415.683c-4.749.33-9.55.494-14.391.494-114.926 0-208.094-93.158-208.094-208.084s93.168-208.093 208.094-208.093c4.842 0 9.642.165 14.391.494-108.219 7.387-193.713 97.506-193.713 207.6s85.494 200.203 193.713 207.589z" fill="#2f51f3"/><circle cx="208.094" cy="208.094" fill="#c5f4fc" r="147.143"/><path d="m227.622 353.945c-6.387.855-12.898 1.288-19.522 1.288-81.27 0-147.149-65.879-147.149-147.139 0-81.27 65.879-147.149 147.149-147.149 6.624 0 13.135.433 19.522 1.288-72.04 9.55-127.617 71.216-127.617 145.862 0 74.635 55.577 136.301 127.617 145.85z" fill="#7dddfa"/></g></svg>